<svg width="43" height="43" viewBox="0 0 43 43" fill="none" xmlns="http://www.w3.org/2000/svg">
<g clip-path="url(#clip0_2408_3545)">
<mask id="mask0_2408_3545" style="mask-type:luminance" maskUnits="userSpaceOnUse" x="0" y="0" width="43" height="43">
<path d="M43 21.5C43 9.62588 33.3741 0 21.5 0C9.62588 0 0 9.62588 0 21.5C0 33.3741 9.62588 43 21.5 43C33.3741 43 43 33.3741 43 21.5Z" fill="white"/>
</mask>
<g mask="url(#mask0_2408_3545)">
<path d="M43 21.5C43 9.62588 33.3741 0 21.5 0C9.62588 0 0 9.62588 0 21.5C0 33.3741 9.62588 43 21.5 43C33.3741 43 43 33.3741 43 21.5Z" fill="white"/>
<path d="M10.2857 25.3315C9.33948 27.4209 6.56854 32.2122 3.05507 34.6626C-1.33677 37.7258 -3.52256 41.5232 -5.29371 45.4367C-7.06485 49.3502 -9.67796 54.4588 -15.2576 58.295C-19.7212 61.364 -23.8428 68.2528 -25.3457 71.3136" stroke="#FFC700" stroke-width="3" stroke-linecap="round"/>
<path d="M12.1411 26.7693C11.1949 28.8586 8.42396 33.6499 4.91046 36.1004C0.518628 39.1634 -1.66716 42.9609 -3.43831 46.8744C-5.20945 50.788 -7.82257 55.8965 -13.4022 59.7328C-17.8658 62.8017 -21.9874 69.6906 -23.4902 72.7514" stroke="#1BC47D" stroke-width="3" stroke-linecap="round"/>
<path d="M14.0298 28.1304C13.0835 30.2197 10.3126 35.011 6.79916 37.4615C2.40733 40.5246 0.221531 44.3221 -1.54961 48.2356C-3.32075 52.149 -5.93387 57.2576 -11.5134 61.0938C-15.9772 64.1628 -20.0988 71.0517 -21.6016 74.1125" stroke="#18A0FB" stroke-width="3" stroke-linecap="round"/>
<path d="M15.8696 29.5554C14.9234 31.6447 12.1525 36.4361 8.63897 38.8865C4.24717 41.9496 2.06138 45.747 0.290231 49.6606C-1.48091 53.5741 -4.09403 58.6826 -9.67359 62.5189C-14.1373 65.5879 -18.2589 72.4767 -19.7617 75.5375" stroke="#907CFF" stroke-width="3" stroke-linecap="round"/>
<path d="M17.7076 30.9805C16.7613 33.0698 13.9904 37.861 10.4769 40.3116C6.08509 43.3746 3.89931 47.1721 2.12816 51.0856C0.357018 54.9991 -2.2561 60.1076 -7.8357 63.9439C-12.2993 67.0128 -16.4209 73.9017 -17.9238 76.9625" stroke="#EE46D3" stroke-width="3" stroke-linecap="round"/>
<path d="M19.5474 32.4055C18.6011 34.4948 15.8302 39.2862 12.3168 41.7366C7.92494 44.7997 5.73914 48.5971 3.968 52.5106C2.19686 56.4242 -0.416256 61.5327 -5.99586 65.369C-10.4595 68.438 -14.5811 75.3268 -16.084 78.3876" stroke="#EF5533" stroke-width="3" stroke-linecap="round"/>
<path fill-rule="evenodd" clip-rule="evenodd" d="M15.3545 10.0211C19.6085 4.38331 26.2039 3.90903 31.4191 7.84406C36.6088 11.76 37.9628 18.2323 33.7089 23.8701C31.1591 27.2494 28.1103 28.6211 24.9063 28.2672C24.802 29.8594 23.9975 31.5447 22.7513 33.1963C20.3594 36.3663 17.4404 37.814 15.0186 35.9866C13.0286 34.485 13.7429 32.7574 14.7351 30.8567L13.9841 30.2902C12.485 31.8083 10.9721 33.2277 8.62541 31.4571C6.01582 29.488 6.74838 26.0963 9.14028 22.9262C10.4664 21.1688 12.0044 19.8315 13.7317 19.3668C12.5661 16.4552 12.9175 13.251 15.3545 10.0211ZM28.0335 23.291C29.6568 23.1546 31.9298 22.251 31.2925 21.4805C30.8791 20.9809 29.2308 20.3269 27.3873 19.5955C26.3884 19.1992 25.3322 18.7802 24.3841 18.3507C23.436 17.9211 22.404 17.3784 21.428 16.8651C19.6266 15.9177 18.0159 15.0707 17.4757 15.2208C16.6429 15.4523 17.2958 17.5544 18.2636 18.8647C19.2315 20.1749 20.8046 21.3773 22.6368 22.2074C24.469 23.0376 26.4103 23.4273 28.0335 23.291ZM20.2583 11.8586C19.2622 11.4344 18.553 12.0371 18.3302 12.3725C18.2434 12.5032 18.0672 12.5387 17.9365 12.452C17.8059 12.3652 17.7703 12.189 17.8571 12.0584C18.1652 11.5943 19.1371 10.7639 20.4808 11.336C21.351 11.7066 21.7144 12.3103 21.847 12.8331C21.9118 13.0886 21.9203 13.3191 21.9128 13.4856C21.9091 13.5693 21.9013 13.6379 21.8941 13.687C21.8905 13.7116 21.887 13.7314 21.8843 13.7458C21.8838 13.7487 21.8832 13.7515 21.8827 13.754L21.8822 13.7569C21.8819 13.7582 21.8816 13.7595 21.8813 13.7607L21.8809 13.7633C21.8804 13.7656 21.88 13.7675 21.8796 13.769L21.8791 13.7711L21.879 13.7719L21.8789 13.7723C21.8789 13.7724 21.8788 13.7726 21.602 13.7094L21.8788 13.7726C21.8439 13.9254 21.6917 14.0211 21.5388 13.9862C21.3864 13.9514 21.2909 13.8001 21.3249 13.6477L20.2583 11.8586ZM20.2583 11.8586C20.9508 12.1534 21.2035 12.6058 21.2965 12.9726C21.3445 13.1619 21.3511 13.3348 21.3455 13.4602C21.3427 13.5226 21.3369 13.5722 21.3322 13.6048C21.3298 13.6211 21.3276 13.633 21.3263 13.6402C21.3259 13.6422 21.3256 13.6438 21.3253 13.6451L21.3249 13.6471L21.3249 13.6475L20.2583 11.8586ZM29.8308 17.1907C30.0915 16.8837 30.8665 16.3684 31.806 16.9066L32.655 18.8086C32.6034 18.956 32.6805 19.1175 32.8278 19.17C32.9755 19.2226 33.1379 19.1455 33.1905 18.9977L32.923 18.9024C33.1905 18.9977 33.1906 18.9976 33.1907 18.9974L33.1907 18.997L33.1911 18.9963L33.1917 18.9943C33.192 18.9933 33.1924 18.9921 33.1929 18.9908L33.1936 18.9888C33.1945 18.9863 33.1954 18.9834 33.1965 18.9801C33.1973 18.9775 33.1982 18.9748 33.1991 18.9718C33.2036 18.9577 33.2093 18.9385 33.2157 18.9145C33.2286 18.8666 33.2445 18.7994 33.258 18.7168C33.2849 18.5522 33.3036 18.3224 33.2693 18.061C33.199 17.5263 32.909 16.8841 32.0882 16.4138C30.8211 15.6879 29.7585 16.3984 29.3979 16.8231C29.2964 16.9427 29.311 17.1218 29.4306 17.2233C29.5501 17.3249 29.7293 17.3102 29.8308 17.1907ZM32.6551 18.8085L31.806 16.9066C32.4589 17.2807 32.6569 17.7596 32.7061 18.135C32.7316 18.3286 32.7179 18.501 32.6975 18.6249C32.6875 18.6865 32.6759 18.7351 32.6674 18.7669C32.6631 18.7828 32.6596 18.7944 32.6574 18.8013C32.6563 18.8047 32.6556 18.807 32.6552 18.808L32.6551 18.8085Z" fill="black"/>
</g>
</g>
<defs>
<clipPath id="clip0_2408_3545">
<rect width="43" height="43" fill="white"/>
</clipPath>
</defs>
</svg>
